<?xml version="1.0" encoding="UTF-8"?>
<svg xmlns="http://www.w3.org/2000/svg" xmlns:xlink="http://www.w3.org/1999/xlink" width="220" height="59.152" viewBox="0 0 220 59.152">
  <defs>
    <style>.a{fill:none;}.b{clip-path:url(#a);}.c{fill:#000;}.d{fill:#159add;}</style>
    <clipPath id="a">
      <rect class="a" width="220" height="59.152"></rect>
    </clipPath>
  </defs>
  <g class="b">
    <path class="c" d="M6.079,26.837,18.125.432A.918.918,0,0,1,18.792,0h.393a.918.918,0,0,1,.667.432l12.04,26.4a.693.693,0,0,1-.667,1.02H28.679a.915.915,0,0,1-.9-.589l-2.432-5.375L18.985,7.149c-.785,1.8-8.08,18.314-8.864,20.119a.987.987,0,0,1-.9.589H6.747a.693.693,0,0,1-.667-1.02" transform="translate(-4.572)"></path>
    <path class="c" d="M127.674,2.393a.738.738,0,0,1,.706-.746h9.405a13.732,13.732,0,1,1,0,27.465H128.38a.738.738,0,0,1-.706-.746Zm9.562,22.992A9.688,9.688,0,0,0,147.2,15.34a9.647,9.647,0,0,0-9.965-9.966h-5.561v20.01Z" transform="translate(-97.283 -1.255)"></path>
    <path class="c" d="M224.839,26.837,236.885.432A.917.917,0,0,1,237.552,0h.393a.918.918,0,0,1,.667.432l12.04,26.4a.693.693,0,0,1-.667,1.02h-2.545a.915.915,0,0,1-.9-.589L244.1,21.893,237.745,7.149c-.785,1.8-8.08,18.314-8.864,20.119a.986.986,0,0,1-.9.589h-2.472a.693.693,0,0,1-.667-1.02" transform="translate(-171.259)"></path>
    <path class="c" d="M356.12,2.394a.745.745,0,0,1,.746-.746h8.945a8.749,8.749,0,1,1,.04,17.5h-5.689v9.22a.772.772,0,0,1-.745.746h-2.55a.745.745,0,0,1-.746-.746ZM365.576,15.3a5,5,0,0,0,4.983-5.022,4.836,4.836,0,0,0-4.983-4.708h-5.414V15.3Z" transform="translate(-271.35 -1.256)"></path>
    <path class="c" d="M452.786,5.337h-5.658a.745.745,0,0,1-.745-.746v-2.2a.745.745,0,0,1,.745-.745h15.4a.745.745,0,0,1,.746.745v2.2a.745.745,0,0,1-.746.746h-5.657V28.368a.771.771,0,0,1-.745.745h-2.59a.772.772,0,0,1-.746-.745Z" transform="translate(-340.127 -1.256)"></path>
    <path class="c" d="M416.985,134.449v-2.168a.752.752,0,0,1,.743-.808h15.995a.753.753,0,0,1,.743.808v2.168a.741.741,0,0,1-.743.766H417.728a.741.741,0,0,1-.743-.766" transform="translate(-317.727 -100.178)"></path>
    <path class="c" d="M416.985,184.28v-2.168a.752.752,0,0,1,.743-.808h15.995a.752.752,0,0,1,.743.808v2.168a.741.741,0,0,1-.743.765H417.728a.74.74,0,0,1-.743-.765" transform="translate(-317.727 -138.147)"></path>
    <path class="c" d="M416.985,234.109v-2.168a.752.752,0,0,1,.743-.808h15.995a.753.753,0,0,1,.743.808v2.168a.741.741,0,0,1-.743.766H417.728a.741.741,0,0,1-.743-.766" transform="translate(-317.727 -176.115)"></path>
    <path class="c" d="M335.557,135.161H329.9a.745.745,0,0,1-.746-.746v-2.2a.745.745,0,0,1,.746-.746h15.4a.745.745,0,0,1,.745.746v2.2a.745.745,0,0,1-.745.746h-5.658v23.031a.772.772,0,0,1-.745.746H336.3a.772.772,0,0,1-.745-.746Z" transform="translate(-250.803 -100.178)"></path>
    <path class="c" d="M224.839,156.663l12.045-26.4a.917.917,0,0,1,.667-.431h.393a.918.918,0,0,1,.667.431l12.04,26.4a.693.693,0,0,1-.667,1.02h-2.545a.914.914,0,0,1-.9-.589L244.1,151.72l-6.359-14.744c-.785,1.8-8.08,18.314-8.864,20.119a.986.986,0,0,1-.9.589h-2.472a.693.693,0,0,1-.667-1.02" transform="translate(-171.259 -98.923)"></path>
    <path class="c" d="M126.005,132.493a.693.693,0,0,1,.667-1.02h2.785a.769.769,0,0,1,.667.432l8.631,19.421h.236l8.632-19.421a.721.721,0,0,1,.667-.432h2.785a.693.693,0,0,1,.667,1.02L139.7,158.9a.747.747,0,0,1-.667.432h-.392a.8.8,0,0,1-.667-.432Z" transform="translate(-95.951 -100.178)"></path>
    <path class="c" d="M13.631,129.826c8.01,0,13.671,6.317,13.671,14.164s-5.661,14.085-13.671,14.085S0,151.837,0,143.99s5.621-14.164,13.631-14.164m0,24.325c5.727,0,9.666-4.551,9.666-10.162,0-5.572-3.939-10.24-9.666-10.24-5.687,0-9.626,4.669-9.626,10.24,0,5.611,3.938,10.162,9.626,10.162" transform="translate(0 -98.923)"></path>
    <path class="c" d="M560.143,141.355l.623-1.052a.406.406,0,0,1,.589-.119,5.783,5.783,0,0,0,2.613,1.052,1.435,1.435,0,0,0,1.574-1.307c0-.865-.744-1.459-2.2-2.035-1.626-.645-3.253-1.662-3.253-3.664,0-1.51,1.142-3.258,3.893-3.258a6.171,6.171,0,0,1,3.461,1.137.415.415,0,0,1,.1.56l-.657.967a.46.46,0,0,1-.606.2,5.76,5.76,0,0,0-2.4-.933,1.37,1.37,0,0,0-1.523,1.188c0,.8.64,1.34,2.042,1.9,1.678.662,3.616,1.646,3.616,3.834,0,1.748-1.54,3.359-3.979,3.359a5.624,5.624,0,0,1-3.806-1.323c-.156-.153-.242-.237-.087-.509" transform="translate(-426.746 -99.796)"></path>
    <path class="c" d="M598.787,132.007a.336.336,0,0,1,.329-.322h1.644a.325.325,0,0,1,.329.322v6.939a2.518,2.518,0,1,0,5.034.017v-6.956a.326.326,0,0,1,.329-.322H608.1a.337.337,0,0,1,.329.322v7.058a4.821,4.821,0,0,1-9.638,0Z" transform="translate(-456.254 -100.339)"></path>
    <path class="c" d="M651.353,130.973a5.923,5.923,0,0,1,4.187,1.577.312.312,0,0,1,.017.476l-1.055,1.069a.28.28,0,0,1-.432,0,4.141,4.141,0,0,0-2.665-1,3.937,3.937,0,0,0,.017,7.872A4.2,4.2,0,0,0,654.07,140a.324.324,0,0,1,.432,0l1.073,1.086a.319.319,0,0,1-.017.458,6,6,0,0,1-4.2,1.646,6.109,6.109,0,1,1,0-12.215" transform="translate(-491.548 -99.797)"></path>
    <path class="c" d="M695.033,130.973a5.923,5.923,0,0,1,4.187,1.577.312.312,0,0,1,.017.476l-1.055,1.069a.28.28,0,0,1-.433,0,4.141,4.141,0,0,0-2.665-1,3.937,3.937,0,0,0,.017,7.872A4.2,4.2,0,0,0,697.75,140a.324.324,0,0,1,.433,0l1.073,1.086a.319.319,0,0,1-.017.458,6,6,0,0,1-4.2,1.646,6.109,6.109,0,1,1,0-12.215" transform="translate(-524.83 -99.797)"></path>
    <path class="c" d="M738.63,132.007a.325.325,0,0,1,.329-.322H746a.325.325,0,0,1,.329.322V133.4a.325.325,0,0,1-.329.322h-5.122V136.5h4.273a.338.338,0,0,1,.329.323v1.408a.326.326,0,0,1-.329.323h-4.273v2.969H746a.326.326,0,0,1,.329.322v1.392a.325.325,0,0,1-.329.322h-7.042a.325.325,0,0,1-.329-.322Z" transform="translate(-562.809 -100.339)"></path>
    <path class="c" d="M775,141.355l.622-1.052a.406.406,0,0,1,.589-.119,5.783,5.783,0,0,0,2.613,1.052,1.435,1.435,0,0,0,1.574-1.307c0-.865-.744-1.459-2.2-2.035-1.627-.645-3.253-1.662-3.253-3.664,0-1.51,1.141-3.258,3.893-3.258a6.17,6.17,0,0,1,3.46,1.137.415.415,0,0,1,.1.56l-.657.967a.46.46,0,0,1-.606.2,5.758,5.758,0,0,0-2.4-.933,1.37,1.37,0,0,0-1.523,1.188c0,.8.64,1.34,2.042,1.9,1.678.662,3.616,1.646,3.616,3.834,0,1.748-1.539,3.359-3.979,3.359a5.623,5.623,0,0,1-3.806-1.323c-.156-.153-.242-.237-.087-.509" transform="translate(-590.458 -99.796)"></path>
    <path class="c" d="M811.382,141.355,812,140.3a.406.406,0,0,1,.588-.119,5.783,5.783,0,0,0,2.613,1.052,1.435,1.435,0,0,0,1.574-1.307c0-.865-.744-1.459-2.2-2.035-1.627-.645-3.253-1.662-3.253-3.664,0-1.51,1.142-3.258,3.893-3.258a6.17,6.17,0,0,1,3.461,1.137.415.415,0,0,1,.1.56l-.657.967a.459.459,0,0,1-.605.2,5.759,5.759,0,0,0-2.4-.933,1.37,1.37,0,0,0-1.523,1.188c0,.8.64,1.34,2.042,1.9,1.678.662,3.616,1.646,3.616,3.834,0,1.748-1.54,3.359-3.979,3.359a5.624,5.624,0,0,1-3.806-1.323c-.156-.153-.242-.237-.087-.509" transform="translate(-618.18 -99.796)"></path>
    <path class="d" d="M850.3,170.53a1.441,1.441,0,0,1,1.436,1.408,1.427,1.427,0,0,1-1.436,1.391,1.412,1.412,0,0,1-1.419-1.391,1.426,1.426,0,0,1,1.419-1.408" transform="translate(-646.819 -129.938)"></path>
    <path class="c" d="M560.143,206.42l.623-1.051a.405.405,0,0,1,.589-.119,5.778,5.778,0,0,0,2.613,1.052,1.435,1.435,0,0,0,1.574-1.306c0-.865-.744-1.459-2.2-2.036-1.626-.645-3.253-1.662-3.253-3.664,0-1.51,1.142-3.257,3.893-3.257a6.171,6.171,0,0,1,3.461,1.136.415.415,0,0,1,.1.56l-.657.967a.46.46,0,0,1-.606.2,5.76,5.76,0,0,0-2.4-.933,1.37,1.37,0,0,0-1.523,1.188c0,.8.64,1.34,2.042,1.9,1.678.662,3.616,1.646,3.616,3.835,0,1.747-1.54,3.359-3.979,3.359a5.624,5.624,0,0,1-3.806-1.323c-.156-.153-.242-.237-.087-.509" transform="translate(-426.746 -149.373)"></path>
    <path class="c" d="M598.787,197.072a.336.336,0,0,1,.329-.322h1.644a.325.325,0,0,1,.329.322v6.939a2.518,2.518,0,1,0,5.034.017v-6.956a.326.326,0,0,1,.329-.322H608.1a.337.337,0,0,1,.329.322v7.058a4.821,4.821,0,0,1-9.638,0Z" transform="translate(-456.254 -149.916)"></path>
    <path class="c" d="M643.877,206.42l.623-1.051a.405.405,0,0,1,.588-.119A5.779,5.779,0,0,0,647.7,206.3a1.435,1.435,0,0,0,1.574-1.306c0-.865-.744-1.459-2.2-2.036-1.626-.645-3.253-1.662-3.253-3.664,0-1.51,1.142-3.257,3.893-3.257a6.171,6.171,0,0,1,3.461,1.136.415.415,0,0,1,.1.56l-.657.967a.46.46,0,0,1-.606.2,5.759,5.759,0,0,0-2.4-.933,1.37,1.37,0,0,0-1.523,1.188c0,.8.64,1.34,2.042,1.9,1.678.662,3.616,1.646,3.616,3.835,0,1.747-1.54,3.359-3.979,3.359a5.624,5.624,0,0,1-3.806-1.323c-.156-.153-.242-.237-.087-.509" transform="translate(-490.548 -149.373)"></path>
    <path class="c" d="M682.946,198.785H680.3a.325.325,0,0,1-.329-.322v-1.391a.325.325,0,0,1,.329-.322h7.561a.325.325,0,0,1,.328.322v1.391a.325.325,0,0,1-.328.322h-2.647V208.3a.337.337,0,0,1-.329.322h-1.609a.337.337,0,0,1-.329-.322Z" transform="translate(-518.112 -149.916)"></path>
    <path class="c" d="M716.116,204.027l-1.731-3.732h-.052l-1.7,3.732Zm-7.475,3.614,5.381-11.418a.312.312,0,0,1,.294-.187h.173a.294.294,0,0,1,.294.187l5.329,11.418a.3.3,0,0,1-.294.441h-1.505a.5.5,0,0,1-.5-.339l-.848-1.832H711.79l-.848,1.832a.521.521,0,0,1-.5.339h-1.506a.3.3,0,0,1-.294-.441" transform="translate(-539.932 -149.372)"></path>
    <path class="c" d="M760.623,197.072a.337.337,0,0,1,.329-.322h1.609a.337.337,0,0,1,.329.322V208.3a.337.337,0,0,1-.329.323h-1.609a.337.337,0,0,1-.329-.323Z" transform="translate(-579.567 -149.916)"></path>
    <path class="c" d="M778.5,196.343a.322.322,0,0,1,.329-.3h.433l7.2,7.5h.018V196.53a.326.326,0,0,1,.329-.323H788.4a.337.337,0,0,1,.329.323v11.418a.322.322,0,0,1-.329.3h-.415l-7.232-7.787h-.017v7.3a.325.325,0,0,1-.329.322h-1.574a.337.337,0,0,1-.329-.322Z" transform="translate(-593.19 -149.374)"></path>
    <path class="c" d="M828.506,197.072a.325.325,0,0,1,.329-.322h7.042a.325.325,0,0,1,.329.322v1.391a.325.325,0,0,1-.329.322h-5.122v2.783h4.274a.337.337,0,0,1,.329.322V203.3a.326.326,0,0,1-.329.323h-4.274v2.969h5.122a.325.325,0,0,1,.329.322V208.3a.325.325,0,0,1-.329.323h-7.042a.325.325,0,0,1-.329-.323Z" transform="translate(-631.291 -149.916)"></path>
    <path class="c" d="M871.085,206.556a3.877,3.877,0,1,0,0-7.753h-1.972v7.753Zm-4.2-9.484a.321.321,0,0,1,.312-.322h4.1a5.939,5.939,0,1,1,0,11.876h-4.1a.322.322,0,0,1-.312-.323Z" transform="translate(-660.531 -149.916)"></path>
    <path class="d" d="M913.651,235.593A1.441,1.441,0,0,1,915.087,237a1.427,1.427,0,0,1-1.436,1.391A1.412,1.412,0,0,1,912.232,237a1.426,1.426,0,0,1,1.419-1.408" transform="translate(-695.087 -179.513)"></path>
  </g>
</svg>
